<svg xmlns="http://www.w3.org/2000/svg" xmlns:xlink="http://www.w3.org/1999/xlink" version="1.1" width="256" height="256" viewBox="0 0 256 256" xml:space="preserve">
<g style="stroke: none; stroke-width: 0; stroke-dasharray: none; stroke-linecap: butt; stroke-linejoin: miter; stroke-miterlimit: 10; fill: none; fill-rule: nonzero; opacity: 1;" transform="translate(1.4065934065934016 1.4065934065934016) scale(2.81 2.81)">
	<path d="M 45 0 C 28.967 0 14.902 8.392 6.932 21.015 c 2.729 1.97 6.069 3.145 9.693 3.145 h 32.399 c 17.08 0 32.123 8.704 40.948 21.915 C 89.981 45.716 90 45.36 90 45 C 90 20.147 69.853 0 45 0 z" style="stroke: none; stroke-width: 1; stroke-dasharray: none; stroke-linecap: butt; stroke-linejoin: miter; stroke-miterlimit: 10; fill: rgb(0,185,0); fill-rule: nonzero; opacity: 1;" transform=" matrix(1 0 0 1 0 0) " stroke-linecap="round"/>
	<path d="M 90 45 c 0 -1.207 -0.062 -2.399 -0.155 -3.583 C 81.002 27.735 66.02 20.885 49.024 20.885 H 16.625 c -3.159 0 -6.101 -0.494 -8.614 -1.504 C 3.387 26.046 0.51 34.014 0.063 42.629 c 9.023 11.127 22.794 18.247 38.236 18.247 h 0.744 c 9.038 0 13.101 3.942 13.329 12.925 c 0.004 -0.143 0.022 -0.282 0.022 -0.426 c 0 8.417 -3.516 15.355 -11.172 16.456 C 42.469 89.934 43.726 90 45 90 C 69.853 90 90 69.853 90 45 z" style="stroke: none; stroke-width: 1; stroke-dasharray: none; stroke-linecap: butt; stroke-linejoin: miter; stroke-miterlimit: 10; fill: rgb(0,172,0); fill-rule: nonzero; opacity: 1;" transform=" matrix(1 0 0 1 0 0) " stroke-linecap="round"/>
	<path d="M 41.27 89.834 c 7.988 -1.072 14.169 -7.802 14.378 -16.034 c -0.228 -8.983 -7.566 -16.2 -16.604 -16.2 h -0.744 c -15.296 0 -28.947 -6.992 -37.973 -17.938 C 0.119 41.414 0 43.193 0 45 C 0 68.595 18.164 87.936 41.27 89.834 z" style="stroke: none; stroke-width: 1; stroke-dasharray: none; stroke-linecap: butt; stroke-linejoin: miter; stroke-miterlimit: 10; fill: rgb(0,161,0); fill-rule: nonzero; opacity: 1;" transform=" matrix(1 0 0 1 0 0) " stroke-linecap="round"/>
	<path d="M 72.5 41.114 c 0 -12.306 -12.336 -22.317 -27.5 -22.317 c -15.162 0 -27.5 10.011 -27.5 22.317 c 0 11.032 9.783 20.271 22.998 22.017 c 0.895 0.193 2.115 0.59 2.423 1.356 c 0.278 0.695 0.181 1.784 0.089 2.487 c 0 0 -0.322 1.94 -0.393 2.354 c -0.12 0.695 -0.552 2.719 2.382 1.482 c 2.936 -1.237 15.837 -9.326 21.607 -15.966 h -0.002 C 70.591 50.475 72.5 46.04 72.5 41.114 z M 35.297 47.686 c 0 0.295 -0.239 0.535 -0.535 0.535 h -7.706 h -0.001 c -0.144 0 -0.274 -0.057 -0.37 -0.149 c -0.003 -0.003 -0.005 -0.005 -0.008 -0.008 c -0.003 -0.003 -0.005 -0.006 -0.008 -0.008 c -0.092 -0.097 -0.149 -0.227 -0.149 -0.37 v -0.001 V 35.704 c 0 -0.295 0.24 -0.535 0.535 -0.535 h 1.929 c 0.295 0 0.535 0.24 0.535 0.535 v 9.516 h 5.241 c 0.296 0 0.535 0.24 0.535 0.536 V 47.686 z M 39.948 47.686 c 0 0.295 -0.24 0.535 -0.535 0.535 h -1.929 c -0.295 0 -0.535 -0.239 -0.535 -0.535 V 35.703 c 0 -0.295 0.24 -0.535 0.535 -0.535 h 1.929 c 0.295 0 0.535 0.24 0.535 0.535 V 47.686 z M 53.224 47.686 c 0 0.295 -0.239 0.535 -0.535 0.535 H 50.76 c -0.047 0 -0.093 -0.007 -0.137 -0.018 c -0.003 0 -0.005 -0.001 -0.008 -0.002 c -0.012 -0.003 -0.023 -0.008 -0.036 -0.012 c -0.006 -0.002 -0.01 -0.003 -0.016 -0.006 c -0.009 -0.003 -0.018 -0.008 -0.026 -0.011 c -0.009 -0.004 -0.018 -0.008 -0.026 -0.013 c -0.005 -0.003 -0.01 -0.005 -0.015 -0.008 c -0.011 -0.006 -0.022 -0.013 -0.033 -0.02 c -0.002 -0.002 -0.004 -0.003 -0.006 -0.004 c -0.051 -0.034 -0.098 -0.078 -0.136 -0.132 l -5.498 -7.426 v 7.117 c 0 0.295 -0.24 0.535 -0.536 0.535 h -1.929 c -0.295 0 -0.535 -0.239 -0.535 -0.535 V 35.704 c 0 -0.295 0.24 -0.535 0.535 -0.535 h 1.929 c 0.007 0 0.012 0.001 0.018 0.001 c 0.009 0 0.018 0.001 0.028 0.002 c 0.01 0.001 0.019 0.002 0.029 0.003 c 0.008 0.001 0.015 0.002 0.023 0.003 c 0.011 0.002 0.021 0.004 0.031 0.007 c 0.007 0.002 0.013 0.003 0.018 0.005 c 0.011 0.003 0.022 0.006 0.032 0.01 c 0.007 0.002 0.012 0.003 0.018 0.006 c 0.011 0.004 0.021 0.009 0.031 0.013 c 0.006 0.003 0.011 0.006 0.017 0.008 c 0.009 0.005 0.019 0.01 0.029 0.016 c 0.006 0.003 0.011 0.006 0.016 0.009 c 0.009 0.006 0.018 0.013 0.028 0.019 c 0.005 0.003 0.01 0.007 0.014 0.011 c 0.01 0.007 0.019 0.015 0.029 0.023 c 0.003 0.003 0.007 0.006 0.01 0.009 c 0.011 0.01 0.022 0.021 0.032 0.033 c 0.001 0.001 0.002 0.002 0.003 0.003 c 0.015 0.018 0.029 0.035 0.042 0.055 l 5.491 7.415 v -7.119 c 0 -0.295 0.239 -0.535 0.535 -0.535 h 1.929 c 0.296 0 0.536 0.24 0.535 0.535 V 47.686 z M 63.876 42.659 c 0 0.295 -0.239 0.535 -0.535 0.535 H 58.1 v 2.026 h 5.241 c 0.295 0 0.535 0.24 0.535 0.535 v 1.929 c 0 0.295 -0.239 0.535 -0.535 0.535 h -7.706 h -0.001 c -0.144 0 -0.274 -0.057 -0.37 -0.149 c -0.003 -0.002 -0.005 -0.004 -0.008 -0.007 c -0.003 -0.003 -0.005 -0.006 -0.008 -0.008 c -0.092 -0.097 -0.149 -0.227 -0.149 -0.37 v -0.001 v -11.98 v -0.001 c 0 -0.143 0.057 -0.274 0.149 -0.369 c 0.003 -0.003 0.005 -0.006 0.008 -0.009 c 0.002 -0.002 0.004 -0.003 0.006 -0.006 c 0.097 -0.093 0.227 -0.151 0.372 -0.151 h 0.001 h 7.706 c 0.295 0 0.535 0.24 0.535 0.536 v 1.929 c 0 0.295 -0.239 0.535 -0.535 0.535 H 58.1 v 2.025 h 5.241 c 0.295 0 0.535 0.24 0.535 0.536 V 42.659 z" style="stroke: none; stroke-width: 1; stroke-dasharray: none; stroke-linecap: butt; stroke-linejoin: miter; stroke-miterlimit: 10; fill: rgb(255,255,255); fill-rule: nonzero; opacity: 1;" transform=" matrix(1 0 0 1 0 0) " stroke-linecap="round"/>
</g>
</svg>